<?xml version="1.0" encoding="UTF-8"?>
<svg width="2042px" height="512px" viewBox="0 0 2042 512" version="1.1" xmlns="http://www.w3.org/2000/svg" xmlns:xlink="http://www.w3.org/1999/xlink">
    <g id="logo-brand" stroke="none" stroke-width="1" fill="none" fill-rule="evenodd">
        <g id="logo-black" fill="#000000" fill-rule="nonzero">
            <path d="M189.78997,0 L192.566799,0 C200.13997,0.605320197 206.507744,7.45931034 206.34997,15.0825616 C206.400457,174.218719 206.343659,333.348571 206.375213,492.484729 C206.450945,496.173399 206.444634,500.070148 204.557652,503.374187 C201.231768,509.925517 192.749817,513.109754 185.91503,510.423645 C180.096311,508.374384 175.905823,502.428374 176.069909,496.249064 C176.095152,335.643744 176.063598,175.044729 176.08253,14.4457143 C176.120396,7.03684729 182.488171,0.624236453 189.78997,0 Z" id="Path"></path>
            <path d="M122.123689,115.212611 C126.648659,114.279409 131.558598,115.603547 135.029634,118.642759 C141.795,124.216749 141.895976,135.705222 135.181098,141.348571 C114.695671,157.931823 95.0432927,175.5933 76.8298171,194.654581 C65.4321951,206.691626 54.5015854,219.258325 45.2055183,233.016749 C39.2479573,241.983054 33.7889634,251.548374 31.2140854,262.084729 C29.9140244,267.211034 29.9897561,273.125517 33.4103049,277.444729 C38.9450305,284.771626 47.1366768,289.418719 55.0443293,293.763153 C76.8929268,305.201182 100.584329,312.837044 121.921738,325.296552 C131.615396,330.939901 140.816799,337.882167 147.411768,347.062857 C153.363018,355.31665 156.499573,365.632315 155.723323,375.815567 C154.972317,387.940887 149.797317,399.29064 143.517896,409.511724 C132.063476,427.784828 116.961311,443.422266 101.316402,458.139113 C82.9072866,475.201576 63.2801524,490.939901 42.9020122,505.606305 C39.9863415,507.560985 37.2978659,510.051626 33.8331402,511.003744 C29.9014024,512.063054 25.5342073,511.665813 21.9748171,509.629163 C18.0241463,507.40335 15.2346951,503.279606 14.5657317,498.802759 C13.6632622,493.443153 15.9478354,487.648473 20.3402744,484.420099 C38.4780183,471.639015 55.9720427,457.943645 72.5888415,443.245714 C82.806311,434.146995 92.7082317,424.669951 101.796037,414.429951 C108.971616,406.277044 115.774848,397.670148 120.867805,388.035468 C123.265976,383.224433 125.481128,378.072906 125.525305,372.612414 C125.474817,367.561773 122.117378,363.374975 118.602165,360.089852 C111.306677,353.443941 102.40189,348.948177 93.6170122,344.616355 C73.3714024,334.950148 52.015061,327.503448 32.6971646,315.951921 C22.4733841,309.785222 12.7671037,302.073695 6.52554878,291.732808 C1.40734756,283.365517 -0.650030488,273.289458 0.410213415,263.566502 C1.89329268,247.10936 9.73152439,232.089852 18.5227134,218.400788 C30.0591768,200.707783 44.1200305,184.818128 58.7614939,169.653596 C76.3628049,151.720985 95.0243598,134.822463 114.569451,119.014778 C116.721494,117.148374 119.296372,115.735961 122.123689,115.212611 Z" id="Path"></path>
            <path d="M52.0718598,250.104433 C60.017378,248.679409 68.4803963,253.553498 71.2004268,261.151527 C73.1063415,266.277833 72.5572866,272.33734 69.4775305,276.908768 C66.7890549,281.139704 62.1189329,284.021281 57.1521951,284.651823 C50.6897561,285.59133 43.8234146,282.526897 40.2766463,277.041182 C36.1555793,270.994286 36.4585061,262.349557 41.0150305,256.624236 C43.6782622,253.13734 47.7488415,250.791724 52.0718598,250.104433 Z" id="Path"></path>
            <path d="M99.36,357.277635 C105.475335,356.098522 112.095549,358.368473 116.084085,363.173202 C121.902805,369.882167 121.385305,381.06798 114.75247,387.051823 C108.447805,393.41399 97.2205793,393.451823 90.7770732,387.272512 C84.5733841,381.711133 83.3932317,371.647685 88.0822866,364.781084 C90.6445427,360.909557 94.7971646,358.141478 99.36,357.277635 Z" id="Path"></path>
        </g>
        <g id="text-only" transform="translate(337.000000, 157.000000)" fill="#000000" fill-rule="nonzero">
            <g id="Group-2">
                <path d="M13.2493605,41.2772333 C17.8559262,21.5669858 35.1415157,6.18070132 54.7523241,2.1859741 C83.8614324,-3.95976008 115.186079,3.10783423 139.447326,20.1841956 C133.765894,28.4809368 128.172208,36.8654742 122.578521,45.2280625 C106.34586,35.087601 87.2176445,28.6345802 67.9139405,30.5002495 C57.2310952,31.5538039 46.2850176,38.1385191 43.1042936,48.8496558 C38.6732161,59.9997736 44.6398156,73.1253058 55.3445969,78.0199441 C74.3631325,86.6459211 96.7378804,82.6950919 115.471248,92.4624195 C138.701501,103.3272 149.384346,131.99266 143.264194,156.224412 C140.215087,174.06899 126.417325,188.796803 109.241416,194.042626 C86.5376277,201.11022 61.5963647,200.320054 38.9145124,193.581696 C24.5902866,189.345529 12.4815995,180.412265 0,172.576454 L0,171.698492 C8.02858599,165.421064 13.622273,156.619495 20.6637377,149.288512 C33.6279299,159.428973 49.1586372,166.628262 65.6545297,168.142746 C78.4212976,169.262148 92.2848669,169.284097 103.625793,162.435993 C117.906147,153.985608 118.520356,129.885551 104.08645,121.237625 C93.20618,114.740706 80.0226276,115.179687 67.8920045,113.050629 C50.1238224,110.833775 31.2588389,104.029569 20.8392259,88.5774375 C11.0557578,75.0787714 9.52023585,57.168346 13.2493605,41.2772333 Z" id="Path"></path>
                <path d="M293.843284,3.90196078 C303.487875,3.90196078 313.15474,3.90196078 322.799332,3.90196078 C322.754784,27.4890945 322.910701,51.0762282 322.710236,74.6414408 C339.237458,54.4301608 372.536913,52.6545495 391.915192,69.8626349 C402.963038,78.7626129 407.50691,93.2963208 407.462362,106.931262 C407.440089,137.620842 407.440089,168.310421 407.440089,199 C397.773223,199 388.128632,199 378.48404,199 C378.48404,171.971249 378.461766,144.942498 378.528588,117.913748 C378.59541,109.671403 377.236703,100.574135 370.866372,94.6115885 C359.684883,82.883785 338.079216,84.2867372 328.501446,97.2640449 C322.754784,105.111809 322.977523,115.195528 322.799332,124.424323 C322.799332,149.282882 322.799332,174.141441 322.799332,199 C313.15474,199 303.487875,199 293.843284,199 C293.843284,133.960013 293.843284,68.9419476 293.843284,3.90196078 Z" id="Path"></path>
                <path d="M187.938539,68.1782778 C205.170631,54.0775375 229.715962,51.1287978 250.320027,58.6447585 C261.333676,62.613363 270.223421,70.5949142 278.171642,78.9977138 C271.602865,85.8928871 264.136355,91.7903666 257.326722,98.4194882 C246.203593,83.3875669 223.847854,78.6429782 208.126581,88.8859688 C196.237094,97.0005458 193.303041,112.741938 193.018394,126.288404 C192.996498,140.455657 195.974343,157.061718 208.652083,165.331492 C224.329565,174.510275 246.48824,170.719039 257.173451,155.487579 C264.092563,161.806307 271.011675,168.147206 278.12785,174.244224 C266.15078,188.544503 248.612144,198.876177 229.737858,198.898348 C207.206952,200.250778 184.106753,188.012399 173.136895,167.903325 C164.904027,151.319435 163.393208,132.030687 165.276258,113.806145 C167.071724,96.6014682 173.662397,78.6873201 187.938539,68.1782778 Z" id="Path"></path>
                <path d="M437.812676,75.4785615 C446.885509,63.9952949 460.417497,56.3028363 475.053236,55.150076 C493.441729,53.7091256 513.507923,54.6845382 529.291563,65.3697399 C540.991324,73.4833993 544.302577,88.6466317 544.479177,102.102892 C544.699927,133.737296 544.435027,165.416038 544.589552,197.07261 C534.986918,197.183453 525.406359,197.139116 515.803725,197.116947 C515.847875,193.193128 515.892025,189.269309 515.980325,185.345491 C509.666869,194.257215 499.026709,198.557898 488.364474,198.713077 C472.801584,199.932343 455.649293,197.538148 443.927456,186.232229 C427.569866,171.778388 426.731015,143.735276 441.234304,127.707473 C449.556587,118.019852 462.691224,114.317718 475.031161,114.051696 C488.629374,113.874349 502.249662,114.096033 515.86995,113.985191 C515.185624,104.962624 518.121602,92.969483 509.622719,86.7844803 C499.468209,80.3999614 486.554322,81.3088686 475.163611,82.8606614 C468.87223,83.5922209 464.192326,88.09242 460.395422,92.7921352 C452.889915,86.9839965 445.384408,81.1758578 437.812676,75.4785615 L437.812676,75.4785615 Z M474.854561,138.547854 C467.304904,139.301582 458.45282,144.023466 458.386595,152.669168 C457.040019,162.800158 467.017928,170.204427 476.068687,171.335019 C486.686772,172.576453 498.099558,172.62079 508.055392,168.297938 C517.768402,161.669566 515.009024,147.880779 515.7375,137.727621 C502.117212,138.326169 488.408624,136.973893 474.854561,138.547854 Z" id="Shape"></path>
                <path d="M595.296557,68.2899132 C609.966045,56.2549524 629.999749,52.1989711 648.347556,56.0111502 C663.192202,58.6486462 676.132003,67.9131281 685.590539,79.5048123 C678.649901,85.7993406 671.599789,91.9830498 664.768624,98.4105611 C653.646087,83.4056468 631.313434,78.6625867 615.571103,88.9022771 C603.747934,96.9920759 600.814036,112.639741 600.485615,126.137515 C600.441826,140.366695 603.397618,157.078225 616.162262,165.367498 C631.838908,174.498997 653.974508,170.686818 664.65915,155.460265 C671.577894,161.887776 678.671795,168.115813 685.634328,174.498997 C673.329474,188.39572 656.120195,198.92354 637.246913,198.901376 C614.695313,200.231206 591.618238,188.018935 580.62707,167.938503 C572.394641,151.38212 570.862008,132.166078 572.723062,113.969571 C574.496537,96.7482737 581.064965,78.8177335 595.296557,68.2899132 Z" id="Path"></path>
                <path d="M733.623481,75.054485 C747.034404,58.6463972 771.818315,53.9490086 790.663729,63.2563926 C793.534367,65.2445896 798.530593,66.3807022 799.253731,70.1167648 C793.008449,78.3972778 785.930462,86.0441896 779.268827,94.0188261 C775.214872,91.5281177 771.18283,88.7752295 766.493389,87.6828135 C753.498819,84.3837173 738.400575,92.8608652 735.28889,106.035402 C733.798787,112.174779 733.754961,118.53264 733.689221,124.824956 C733.733048,149.535405 733.711134,174.267703 733.711134,199 C724.200774,199 714.712327,199 705.223881,199 C705.223881,152.747108 705.223881,106.516065 705.223881,60.2631729 C714.712327,60.2413245 724.222688,60.2413245 733.733048,60.2631729 C733.711134,65.200893 733.711134,70.1167648 733.623481,75.054485 Z" id="Path"></path>
                <path d="M824.57324,64.8248185 C850.811283,46.1920828 892.380926,53.778268 908.628845,81.9935535 C918.90951,98.8073792 916.473439,119.08157 916.674583,137.847397 C887.151196,137.869579 857.65016,137.825215 828.149123,137.869579 C828.640807,148.07322 831.792054,158.764861 840.508269,164.997955 C856.242156,177.464142 880.066478,172.118321 893.029055,158.121588 C900.069075,164.155045 907.153793,170.121957 914.193814,176.133232 C901.342983,189.797238 883.329471,199.557243 864.131448,198.936152 C842.497354,199.88997 818.650683,190.152148 808.817004,170.055411 C798.938626,151.932858 797.977608,130.505212 800.324281,110.452839 C802.49216,93.1066494 809.956817,75.3611868 824.57324,64.8248185 L824.57324,64.8248185 Z M835.725525,91.5761032 C830.607543,97.8979243 829.333634,106.193928 828.149123,113.957568 C848.084672,114.001932 868.020221,114.068477 887.95577,113.935386 C886.704211,106.837201 886.033733,99.1844703 881.54153,93.2175585 C871.439659,78.5553701 846.92251,77.9342789 835.725525,91.5761032 Z" id="Shape"></path>
                <path d="M952.764953,65.9408032 C968.622608,53.8803652 989.929247,53.2152675 1008.90061,55.964338 C1023.04572,57.9818009 1035.94536,64.9874965 1046.88781,73.9441453 C1040.99401,81.0385205 1034.98901,88.0442161 1028.85056,94.9390621 C1014.34959,84.4305187 995.378231,78.4002997 977.719075,83.765421 C969.245349,86.1154328 963.240347,98.0650212 969.667923,105.203736 C977.007371,112.453301 988.149987,111.477824 997.624547,112.431131 C1012.41465,113.295758 1029.51778,114.071705 1040.19334,125.866104 C1052.6704,141.40722 1053.91589,166.703102 1040.01542,181.778649 C1026.64873,194.969753 1007.03238,199.603267 988.706006,198.938169 C966.242848,199.049019 944.847246,188.762175 928.544776,173.797477 C935.19476,167.079991 941.755782,160.273824 948.895063,154.088416 C962.662087,168.099807 983.257022,174.373895 1002.56199,171.225766 C1010.14609,169.673871 1019.15359,165.683285 1020.62148,157.192205 C1022.55643,150.408209 1018.175,142.781755 1011.05796,141.673259 C997.246454,139.079378 982.967892,139.966175 969.223108,136.906726 C955.967621,133.692087 943.46832,124.11468 939.820837,110.613197 C935.372686,95.0499117 939.131373,75.8950985 952.764953,65.9408032 Z" id="Path"></path>
            </g>
            <g id="Group" transform="translate(1168.000000, 0.000000)">
                <path d="M0,0.0274001641 C10.0972976,-0.0164400984 20.1725967,0.00548003281 30.2698942,0.00548003281 C30.2918927,55.7264537 30.2478958,111.425507 30.2918927,167.124561 C61.9476905,167.102641 93.6034883,167.212241 125.281285,167.08072 C125.501269,176.418696 125.413275,185.734752 125.413275,195.072728 C83.6161831,195.094648 41.7970923,195.116568 0,195.072728 C0.0219984696,130.057619 0.0219984696,65.0425095 0,0.0274001641 Z" id="Path"></path>
                <path d="M290.058394,0 C299.746492,0 309.434589,0 319.145061,0 C319.212184,40.408939 319.033189,80.8178781 319.212184,121.226817 C336.216697,100.956606 353.22121,80.7083094 370.091477,60.3285299 C371.993297,58.3343795 373.827995,55.1349732 377.228897,55.9019542 C387.856718,55.7047305 398.484538,55.9896091 409.134733,55.8581267 C392.958072,74.0903595 376.177302,91.8624037 360.291507,110.313774 C378.056748,138.889293 397.186825,166.741658 415.489051,195.032298 C403.3174,195.054212 391.123374,194.966557 378.951723,195.098039 C366.220712,173.797883 354.026687,152.16902 341.407548,130.803122 C334.068758,139.10843 326.595723,147.326083 319.167435,155.56565 C319.100312,168.713895 319.167435,181.884053 319.145061,195.032298 C309.434589,195.032298 299.746492,195.032298 290.058394,195.032298 C290.058394,130.014227 290.058394,65.0180706 290.058394,0 Z" id="Path"></path>
                <path d="M147.950342,75.4734332 C156.985443,64.0336241 170.482868,56.3405742 185.062737,55.1655551 C203.4643,53.7023237 223.544756,54.6556411 239.383796,65.2751538 C251.202327,73.3894369 254.515933,88.6646858 254.692659,102.166321 C254.891475,133.803157 254.670568,165.462164 254.781022,197.099 C245.193653,197.16551 235.606284,197.14334 225.996825,197.14334 C226.041006,193.19705 226.085188,189.272929 226.173551,185.348809 C218.971979,195.76879 206.048913,199.249507 193.987384,198.894784 C178.302979,199.759421 161.359404,195.369727 150.888407,182.95443 C133.746015,163.954592 139.79887,128.748358 163.899836,118.505738 C183.60475,110.524476 205.408282,115.313233 226.063097,113.983023 C225.378285,104.959763 228.31635,93.0100397 219.855607,86.8245615 C209.715971,80.3952115 196.837086,81.3041885 185.46037,82.8339305 C179.120336,83.543376 174.370833,88.043921 170.527049,92.7883379 C163.038298,86.9797527 155.527456,81.1711675 147.950342,75.4734332 L147.950342,75.4734332 Z M186.520724,138.303702 C178.479705,138.902297 168.516794,143.425012 168.516794,152.847335 C167.301805,162.868253 177.198444,170.18441 186.189363,171.337259 C196.859177,172.600959 208.346347,172.623129 218.353439,168.255605 C227.984989,161.626724 224.91438,147.992068 226.217732,137.97115 C212.985396,137.97115 199.730969,137.306045 186.520724,138.303702 Z" id="Shape"></path>
                <path d="M443.539046,65.7496944 C469.582638,45.993639 512.191297,53.2885237 528.756363,81.8250481 C539.12909,98.6542804 536.692393,119.009004 536.871233,137.811625 C507.362614,137.833798 477.853994,137.789452 448.345374,137.833798 C448.837184,148.033332 451.989241,158.720671 460.730052,164.973429 C476.467983,177.412427 500.298429,172.068758 513.241982,158.077657 C520.283812,164.108686 527.370352,170.073197 534.412182,176.104226 C522.027503,189.119719 505.037692,198.809277 486.594805,198.853623 C468.733148,200.006614 450.06671,194.352524 437.212577,181.736143 C421.631131,164.330415 418.054329,139.718494 419.820375,117.257345 C420.982836,98.1221308 427.801115,77.8782716 443.539046,65.7496944 L443.539046,65.7496944 Z M455.856659,91.6254706 C450.782071,97.9669205 449.507835,106.193067 448.345374,113.953583 C468.286047,113.975755 488.226721,114.042274 508.167394,113.909237 C506.893158,106.813908 506.267218,99.1864301 501.77386,93.2440924 C491.691748,78.5212857 467.034167,77.9004445 455.856659,91.6254706 Z" id="Shape"></path>
            </g>
        </g>
    </g>
</svg>
