<?xml version="1.0" encoding="UTF-8" ?>
<!DOCTYPE svg PUBLIC "-//W3C//DTD SVG 1.1//EN" "http://www.w3.org/Graphics/SVG/1.1/DTD/svg11.dtd">
<svg width="1350pt" height="716pt" viewBox="0 0 1350 716" version="1.1" xmlns="http://www.w3.org/2000/svg">
<g id="#ffffffff">
</g>
<g id="#c1e0ecff">
<path fill="#c1e0ec" opacity="1.00" d=" M 642.35 113.53 C 677.99 110.50 712.88 122.67 744.07 138.91 C 777.94 156.61 808.79 179.50 838.02 203.98 C 864.37 225.83 889.31 249.32 913.39 273.64 C 952.05 312.48 988.70 353.33 1023.02 396.07 C 1034.79 410.25 1033.26 433.19 1019.65 445.64 C 1005.99 459.57 981.22 459.41 967.72 445.33 C 961.36 438.28 955.81 430.54 949.64 423.33 C 902.11 365.91 850.20 312.02 793.49 263.60 C 765.09 240.00 735.45 217.38 702.26 200.87 C 685.97 193.15 668.34 186.29 649.99 187.34 C 640.51 187.79 632.12 193.05 625.17 199.13 C 614.43 209.02 606.13 221.21 598.72 233.71 C 576.75 271.26 561.50 312.15 543.49 351.63 C 529.22 383.03 514.12 414.47 492.86 441.85 C 484.02 452.89 474.32 463.39 462.86 471.77 C 446.24 484.53 425.92 492.57 404.97 493.98 C 387.14 495.48 369.25 492.16 352.39 486.50 C 320.49 475.29 292.05 456.23 265.79 435.24 C 246.74 420.09 228.97 403.43 211.64 386.36 C 192.96 367.99 175.32 348.60 158.15 328.82 C 125.58 291.39 94.66 252.51 66.00 212.00 C 63.21 208.05 60.25 204.16 58.29 199.71 C 54.02 190.01 54.26 178.43 58.92 168.92 C 63.86 158.33 74.20 150.57 85.67 148.51 C 99.26 145.90 114.05 151.61 122.17 162.86 C 145.24 195.47 169.52 227.24 195.15 257.89 C 217.74 284.81 241.06 311.17 266.11 335.84 C 292.03 361.26 319.38 385.75 350.84 404.16 C 364.24 411.61 378.48 418.64 393.97 420.04 C 406.52 421.28 417.85 413.77 426.23 405.16 C 440.45 390.61 450.29 372.55 459.76 354.73 C 478.38 318.40 492.82 280.15 510.26 243.27 C 524.23 213.32 539.64 183.52 561.33 158.34 C 571.19 146.80 582.69 136.59 595.69 128.72 C 609.82 120.18 625.90 114.91 642.35 113.53 Z" />
<path fill="#c1e0ec" opacity="1.00" d=" M 653.39 204.46 C 666.64 203.53 680.17 209.19 688.69 219.40 C 700.35 232.55 702.12 253.11 693.22 268.20 C 687.15 278.57 676.68 286.34 664.83 288.65 C 655.25 290.65 644.99 289.26 636.31 284.71 C 626.17 279.40 618.21 269.90 615.09 258.85 C 611.49 246.80 613.66 233.15 620.90 222.86 C 628.18 212.19 640.48 205.18 653.39 204.46 Z" />
<path fill="#c1e0ec" opacity="1.00" d=" M 384.35 322.40 C 392.32 320.89 400.74 321.56 408.31 324.55 C 420.41 329.27 430.14 339.81 433.65 352.35 C 436.88 363.12 435.41 375.11 429.97 384.92 C 425.54 392.62 418.82 399.03 410.73 402.76 C 399.60 407.99 386.21 408.06 375.01 403.00 C 363.90 398.03 355.06 388.10 351.66 376.40 C 349.13 368.14 349.25 359.11 351.98 350.92 C 356.56 336.50 369.46 325.14 384.35 322.40 Z" />
<path fill="#c1e0ec" opacity="1.00" d=" M 87.34 544.39 C 91.53 543.80 95.77 543.94 100.00 543.94 C 492.33 543.97 884.66 543.92 1276.99 543.97 C 1293.84 543.73 1309.65 556.54 1312.99 573.03 C 1317.05 589.69 1307.64 608.16 1291.93 614.89 C 1283.21 619.10 1273.34 618.01 1263.98 618.13 C 873.66 618.12 483.34 618.14 93.03 618.12 C 76.71 618.43 61.22 606.59 57.19 590.80 C 53.99 579.39 56.71 566.48 64.39 557.44 C 70.09 550.46 78.42 545.71 87.34 544.39 Z" />
</g>
</svg>
